<svg width="176" height="176" viewBox="0 0 176 176" fill="none" xmlns="http://www.w3.org/2000/svg">
<path d="M26.62 26.62C23.76 29.48 23.76 34.1 26.62 36.96L53.46 63.8L51.3333 66H29.3333C25.3 66 22 69.3 22 73.3333V102.667C22 106.7 25.3 110 29.3333 110H51.3333L75.46 134.127C80.08 138.747 88 135.447 88 128.92V98.34L118.653 128.993C115.06 131.707 111.173 133.98 106.92 135.667C104.28 136.767 102.667 139.553 102.667 142.413C102.667 147.693 108.02 151.067 112.86 149.087C118.727 146.667 124.227 143.44 129.14 139.48L138.967 149.307C141.827 152.167 146.447 152.167 149.307 149.307C152.167 146.447 152.167 141.827 149.307 138.967L37.0333 26.62C34.1733 23.76 29.5533 23.76 26.62 26.62ZM139.333 88C139.333 94.0133 138.233 99.8066 136.327 105.16L147.547 116.38C151.653 107.8 154 98.1933 154 88C154 59.9133 136.4 35.86 111.613 26.4C107.287 24.7133 102.667 28.0866 102.667 32.7066V34.1C102.667 36.8866 104.5 39.3066 107.14 40.3333C125.987 47.96 139.333 66.44 139.333 88ZM75.46 41.8733L74.2133 43.12L88 56.9066V47.0066C88 40.48 80.08 37.2533 75.46 41.8733ZM121 88C121 75.02 113.52 63.8733 102.667 58.4466V71.5733L120.853 89.76C120.927 89.1733 121 88.5866 121 88Z" fill="#E0E0E0"/>
</svg>
