<svg width="176" height="176" viewBox="0 0 176 176" fill="none" xmlns="http://www.w3.org/2000/svg">
<g clip-path="url(#clip0_4126_17379)">
<path d="M70.106 58.6667L55.4393 44L25.006 13.64L14.666 23.98L34.686 44H29.3327C25.2993 44 21.9993 47.3 21.9993 51.3333V124.667C21.9993 128.7 25.2993 132 29.3327 132H117.333C118.873 132 120.193 131.413 121.366 130.68L144.686 154L155.026 143.66L90.0527 78.6867L70.106 58.6667ZM36.666 117.333V58.6667H49.3527L108.019 117.333H36.666ZM109.999 58.6667V77.8067L153.999 121.807V47.6667L124.666 77V51.3333C124.666 47.3 121.366 44 117.333 44H76.1927L90.8594 58.6667H109.999Z" fill="#E0E0E0"/>
</g>
<defs>
<clipPath id="clip0_4126_17379">
<rect width="176" height="176" fill="white"/>
</clipPath>
</defs>
</svg>
