<svg width="187" height="192" viewBox="0 0 187 192" fill="none" xmlns="http://www.w3.org/2000/svg">
<g clip-path="url(#clip0_1881_7575)">
<path d="M160.601 176.6L115.867 131.867L96.1405 112.14L36.6672 52.6667L26.3272 42.3267L15.4005 31.4L5.06055 41.74L22.0005 58.7534V155.333C22.0005 163.4 28.6005 170 36.6672 170H133.247L150.187 186.94L160.601 176.6ZM36.6672 155.333V73.42L86.8272 123.58L80.6672 131.28L66.0006 111.333L44.0005 140.667H103.914L118.581 155.333H36.6672ZM57.4205 52.6667L42.7539 38H139.334C147.401 38 154.001 44.6 154.001 52.6667V149.247L139.334 134.58V52.6667H57.4205Z" fill="#E0E0E0"/>
</g>
<circle cx="147.5" cy="39.5" r="34.5" fill="white"/>
<path d="M147.501 6.58331C129.298 6.58331 114.584 21.2971 114.584 39.5C114.584 57.7029 129.298 72.4166 147.501 72.4166C165.704 72.4166 180.417 57.7029 180.417 39.5C180.417 21.2971 165.704 6.58331 147.501 6.58331ZM163.959 51.3171L159.318 55.9583L147.501 44.1412L135.684 55.9583L131.042 51.3171L142.859 39.5L131.042 27.6829L135.684 23.0416L147.501 34.8587L159.318 23.0416L163.959 27.6829L152.142 39.5L163.959 51.3171Z" fill="#E0E0E0"/>
<defs>
<clipPath id="clip0_1881_7575">
<rect width="176" height="176" fill="white" transform="translate(0 16)"/>
</clipPath>
</defs>
</svg>
