<svg width="57" height="56" viewBox="0 0 57 56" fill="none" xmlns="http://www.w3.org/2000/svg">
<g clip-path="url(#clip0_3465_62698)" filter="url(#filter0_dd_3465_62698)">
<path d="M28.5002 18.3346C23.6197 18.3346 19.6668 22.213 19.6668 27.0013C19.6668 31.7896 23.6197 35.668 28.5002 35.668C33.3806 35.668 37.3335 31.7896 37.3335 27.0013C37.3335 22.213 33.3806 18.3346 28.5002 18.3346ZM48.2427 24.8346C47.2268 15.7996 39.9172 8.62797 30.7085 7.6313V3.16797H26.2918V7.6313C17.0831 8.62797 9.7735 15.7996 8.75766 24.8346H4.2085V29.168H8.75766C9.7735 38.203 17.0831 45.3746 26.2918 46.3713V50.8346H30.7085V46.3713C39.9172 45.3746 47.2268 38.203 48.2427 29.168H52.7918V24.8346H48.2427ZM28.5002 42.168C19.9539 42.168 13.0418 35.3863 13.0418 27.0013C13.0418 18.6163 19.9539 11.8346 28.5002 11.8346C37.0464 11.8346 43.9585 18.6163 43.9585 27.0013C43.9585 35.3863 37.0464 42.168 28.5002 42.168Z" fill="#3E9FCC"/>
</g>
<defs>
<filter id="filter0_dd_3465_62698" x="-2" y="-2" width="61" height="60" filterUnits="userSpaceOnUse" color-interpolation-filters="sRGB">
<feFlood flood-opacity="0" result="BackgroundImageFix"/>
<feColorMatrix in="SourceAlpha" type="matrix" values="0 0 0 0 0 0 0 0 0 0 0 0 0 0 0 0 0 0 127 0" result="hardAlpha"/>
<feMorphology radius="1" operator="dilate" in="SourceAlpha" result="effect1_dropShadow_3465_62698"/>
<feOffset dy="1"/>
<feGaussianBlur stdDeviation="1.5"/>
<feColorMatrix type="matrix" values="0 0 0 0 0 0 0 0 0 0 0 0 0 0 0 0 0 0 0.15 0"/>
<feBlend mode="normal" in2="BackgroundImageFix" result="effect1_dropShadow_3465_62698"/>
<feColorMatrix in="SourceAlpha" type="matrix" values="0 0 0 0 0 0 0 0 0 0 0 0 0 0 0 0 0 0 127 0" result="hardAlpha"/>
<feOffset dy="1"/>
<feGaussianBlur stdDeviation="1"/>
<feColorMatrix type="matrix" values="0 0 0 0 0 0 0 0 0 0 0 0 0 0 0 0 0 0 0.3 0"/>
<feBlend mode="normal" in2="effect1_dropShadow_3465_62698" result="effect2_dropShadow_3465_62698"/>
<feBlend mode="normal" in="SourceGraphic" in2="effect2_dropShadow_3465_62698" result="shape"/>
</filter>
<clipPath id="clip0_3465_62698">
<rect width="53" height="52" fill="white" transform="translate(2 1)"/>
</clipPath>
</defs>
</svg>
