<svg width="1680" height="920" viewBox="0 0 1680 920" fill="none" xmlns="http://www.w3.org/2000/svg">
<path d="M426 374C424.343 374 423 375.343 423 377C423 378.657 424.343 380 426 380L426 374ZM678.121 379.121C679.293 377.95 679.293 376.05 678.121 374.879L659.029 355.787C657.858 354.615 655.958 354.615 654.787 355.787C653.615 356.958 653.615 358.858 654.787 360.029L671.757 377L654.787 393.971C653.615 395.142 653.615 397.042 654.787 398.213C655.958 399.385 657.858 399.385 659.029 398.213L678.121 379.121ZM432.25 380C433.907 380 435.25 378.657 435.25 377C435.25 375.343 433.907 374 432.25 374L432.25 380ZM444.75 374C443.093 374 441.75 375.343 441.75 377C441.75 378.657 443.093 380 444.75 380L444.75 374ZM457.25 380C458.907 380 460.25 378.657 460.25 377C460.25 375.343 458.907 374 457.25 374L457.25 380ZM469.75 374C468.093 374 466.75 375.343 466.75 377C466.75 378.657 468.093 380 469.75 380L469.75 374ZM482.25 380C483.907 380 485.25 378.657 485.25 377C485.25 375.343 483.907 374 482.25 374L482.25 380ZM494.75 374C493.093 374 491.75 375.343 491.75 377C491.75 378.657 493.093 380 494.75 380L494.75 374ZM507.25 380C508.907 380 510.25 378.657 510.25 377C510.25 375.343 508.907 374 507.25 374L507.25 380ZM519.75 374C518.093 374 516.75 375.343 516.75 377C516.75 378.657 518.093 380 519.75 380L519.75 374ZM532.25 380C533.907 380 535.25 378.657 535.25 377C535.25 375.343 533.907 374 532.25 374L532.25 380ZM544.75 374C543.093 374 541.75 375.343 541.75 377C541.75 378.657 543.093 380 544.75 380L544.75 374ZM557.25 380C558.907 380 560.25 378.657 560.25 377C560.25 375.343 558.907 374 557.25 374L557.25 380ZM569.75 374C568.093 374 566.75 375.343 566.75 377C566.75 378.657 568.093 380 569.75 380L569.75 374ZM582.25 380C583.907 380 585.25 378.657 585.25 377C585.25 375.343 583.907 374 582.25 374L582.25 380ZM594.75 374C593.093 374 591.75 375.343 591.75 377C591.75 378.657 593.093 380 594.75 380L594.75 374ZM607.25 380C608.907 380 610.25 378.657 610.25 377C610.25 375.343 608.907 374 607.25 374L607.25 380ZM619.75 374C618.093 374 616.75 375.343 616.75 377C616.75 378.657 618.093 380 619.75 380L619.75 374ZM632.25 380C633.907 380 635.25 378.657 635.25 377C635.25 375.343 633.907 374 632.25 374L632.25 380ZM644.75 374C643.093 374 641.75 375.343 641.75 377C641.75 378.657 643.093 380 644.75 380L644.75 374ZM657.25 380C658.907 380 660.25 378.657 660.25 377C660.25 375.343 658.907 374 657.25 374L657.25 380ZM669.75 374C668.093 374 666.75 375.343 666.75 377C666.75 378.657 668.093 380 669.75 380L669.75 374ZM426 380L432.25 380L432.25 374L426 374L426 380ZM444.75 380L457.25 380L457.25 374L444.75 374L444.75 380ZM469.75 380L482.25 380L482.25 374L469.75 374L469.75 380ZM494.75 380L507.25 380L507.25 374L494.75 374L494.75 380ZM519.75 380L532.25 380L532.25 374L519.75 374L519.75 380ZM544.75 380L557.25 380L557.25 374L544.75 374L544.75 380ZM569.75 380L582.25 380L582.25 374L569.75 374L569.75 380ZM594.75 380L607.25 380L607.25 374L594.75 374L594.75 380ZM619.75 380L632.25 380L632.25 374L619.75 374L619.75 380ZM644.75 380L657.25 380L657.25 374L644.75 374L644.75 380ZM669.75 380L676 380L676 374L669.75 374L669.75 380Z" fill="#424242"/>
<path d="M1027 374C1025.34 374 1024 375.343 1024 377C1024 378.657 1025.34 380 1027 380V374ZM1279.12 379.121C1280.29 377.95 1280.29 376.05 1279.12 374.879L1260.03 355.787C1258.86 354.615 1256.96 354.615 1255.79 355.787C1254.62 356.958 1254.62 358.858 1255.79 360.029L1272.76 377L1255.79 393.971C1254.62 395.142 1254.62 397.042 1255.79 398.213C1256.96 399.385 1258.86 399.385 1260.03 398.213L1279.12 379.121ZM1027 380H1277V374H1027V380Z" fill="#424242"/>
<path d="M261.121 538.879C259.95 537.707 258.05 537.707 256.879 538.879L237.787 557.971C236.615 559.142 236.615 561.042 237.787 562.213C238.958 563.385 240.858 563.385 242.029 562.213L259 545.243L275.971 562.213C277.142 563.385 279.042 563.385 280.213 562.213C281.385 561.042 281.385 559.142 280.213 557.971L261.121 538.879ZM867 541C867 539.343 865.657 538 864 538C862.343 538 861 539.343 861 541L867 541ZM861 541L861 547.25L867 547.25L867 541L861 541ZM861 559.75L861 572.25L867 572.25L867 559.75L861 559.75ZM861 584.75L861 597.25L867 597.25L867 584.75L861 584.75ZM861 609.75L861 616L867 616L867 609.75L861 609.75ZM861 616C861 617.641 860.893 619.255 860.687 620.836L866.637 621.612C866.876 619.774 867 617.901 867 616L861 616ZM858.194 630.162C856.947 633.169 855.314 635.976 853.357 638.523L858.115 642.179C860.388 639.221 862.286 635.958 863.736 632.461L858.194 630.162ZM846.523 645.357C843.976 647.314 841.169 648.947 838.162 650.194L840.461 655.736C843.958 654.286 847.221 652.388 850.179 650.115L846.523 645.357ZM828.836 652.687C827.255 652.893 825.641 653 824 653L824 659C825.901 659 827.774 658.877 829.612 658.637L828.836 652.687ZM824 653L818.034 653L818.034 659L824 659L824 653ZM806.102 653L794.17 653L794.17 659L806.102 659L806.102 653ZM782.239 653L770.307 653L770.307 659L782.239 659L782.239 653ZM758.375 653L746.443 653L746.443 659L758.375 659L758.375 653ZM734.511 653L722.58 653L722.58 659L734.511 659L734.511 653ZM710.648 653L698.716 653L698.716 659L710.648 659L710.648 653ZM686.784 653L674.852 653L674.852 659L686.784 659L686.784 653ZM662.92 653L650.989 653L650.989 659L662.92 659L662.92 653ZM639.057 653L627.125 653L627.125 659L639.057 659L639.057 653ZM615.193 653L603.261 653L603.261 659L615.193 659L615.193 653ZM591.33 653L579.398 653L579.398 659L591.33 659L591.33 653ZM567.466 653L555.534 653L555.534 659L567.466 659L567.466 653ZM543.602 653L531.67 653L531.67 659L543.602 659L543.602 653ZM519.739 653L507.807 653L507.807 659L519.739 659L519.739 653ZM495.875 653L483.943 653L483.943 659L495.875 659L495.875 653ZM472.011 653L460.079 653L460.079 659L472.011 659L472.011 653ZM448.148 653L436.216 653L436.216 659L448.148 659L448.148 653ZM424.284 653L412.352 653L412.352 659L424.284 659L424.284 653ZM400.42 653L388.489 653L388.489 659L400.42 659L400.42 653ZM376.557 653L364.625 653L364.625 659L376.557 659L376.557 653ZM352.693 653L340.761 653L340.761 659L352.693 659L352.693 653ZM328.829 653L316.898 653L316.898 659L328.829 659L328.829 653ZM304.966 653L299 653L299 659L304.966 659L304.966 653ZM299 653C297.359 653 295.745 652.893 294.164 652.687L293.388 658.637C295.226 658.876 297.099 659 299 659L299 653ZM284.838 650.194C281.831 648.947 279.024 647.314 276.477 645.357L272.821 650.115C275.779 652.388 279.042 654.286 282.539 655.736L284.838 650.194ZM269.643 638.523C267.686 635.976 266.053 633.169 264.806 630.162L259.264 632.461C260.714 635.958 262.612 639.221 264.885 642.179L269.643 638.523ZM262.313 620.836C262.107 619.255 262 617.641 262 616L256 616C256 617.901 256.124 619.774 256.363 621.612L262.313 620.836ZM262 616L262 609.75L256 609.75L256 616L262 616ZM262 597.25L262 584.75L256 584.75L256 597.25L262 597.25ZM262 572.25L262 559.75L256 559.75L256 572.25L262 572.25ZM262 547.25L262 541L256 541L256 547.25L262 547.25Z" fill="#424242"/>
<path d="M339.633 339.179L286.696 286.242C285.633 285.178 284.191 284.579 282.688 284.578H191.938C188.428 284.578 185.061 285.972 182.579 288.454C180.097 290.936 178.703 294.303 178.703 297.812V464.188C178.703 467.697 180.097 471.064 182.579 473.546C185.061 476.028 188.428 477.422 191.938 477.422H328.062C331.572 477.422 334.939 476.028 337.421 473.546C339.903 471.064 341.297 467.697 341.297 464.188V343.188C341.296 341.684 340.697 340.242 339.633 339.179ZM288.359 303.938L321.937 337.516H288.359V303.938ZM328.062 466.078H191.938C191.436 466.078 190.955 465.879 190.601 465.524C190.246 465.17 190.047 464.689 190.047 464.188V297.812C190.047 297.311 190.246 296.83 190.601 296.476C190.955 296.121 191.436 295.922 191.938 295.922H277.016V343.188C277.016 344.692 277.613 346.134 278.677 347.198C279.741 348.262 281.183 348.859 282.688 348.859H329.953V464.188C329.953 464.689 329.754 465.17 329.399 465.524C329.045 465.879 328.564 466.078 328.062 466.078ZM295.922 388.562C295.922 390.067 295.324 391.509 294.261 392.573C293.197 393.637 291.754 394.234 290.25 394.234H229.75C228.246 394.234 226.803 393.637 225.739 392.573C224.676 391.509 224.078 390.067 224.078 388.562C224.078 387.058 224.676 385.616 225.739 384.552C226.803 383.488 228.246 382.891 229.75 382.891H290.25C291.754 382.891 293.197 383.488 294.261 384.552C295.324 385.616 295.922 387.058 295.922 388.562ZM295.922 418.812C295.922 420.317 295.324 421.759 294.261 422.823C293.197 423.887 291.754 424.484 290.25 424.484H229.75C228.246 424.484 226.803 423.887 225.739 422.823C224.676 421.759 224.078 420.317 224.078 418.812C224.078 417.308 224.676 415.866 225.739 414.802C226.803 413.738 228.246 413.141 229.75 413.141H290.25C291.754 413.141 293.197 413.738 294.261 414.802C295.324 415.866 295.922 417.308 295.922 418.812Z" fill="#424242"/>
<path d="M1527.8 339.179L1475.09 286.242C1474.03 285.178 1472.59 284.579 1471.09 284.578H1380.72C1377.22 284.578 1373.87 285.972 1371.4 288.454C1368.93 290.936 1367.54 294.303 1367.54 297.812V464.188C1367.54 467.697 1368.93 471.064 1371.4 473.546C1373.87 476.028 1377.22 477.422 1380.72 477.422H1516.28C1519.78 477.422 1523.13 476.028 1525.6 473.546C1528.07 471.064 1529.46 467.697 1529.46 464.188V343.188C1529.46 341.684 1528.86 340.242 1527.8 339.179ZM1476.74 303.938L1510.18 337.516H1476.74V303.938ZM1516.28 466.078H1380.72C1380.22 466.078 1379.74 465.879 1379.39 465.524C1379.03 465.17 1378.84 464.689 1378.84 464.188V297.812C1378.84 297.311 1379.03 296.83 1379.39 296.476C1379.74 296.121 1380.22 295.922 1380.72 295.922H1465.45V343.188C1465.45 344.692 1466.04 346.134 1467.1 347.198C1468.16 348.262 1469.6 348.859 1471.09 348.859H1518.16V464.188C1518.16 464.689 1517.97 465.17 1517.61 465.524C1517.26 465.879 1516.78 466.078 1516.28 466.078ZM1484.27 388.562C1484.27 390.067 1483.68 391.509 1482.62 392.573C1481.56 393.637 1480.12 394.234 1478.62 394.234H1418.38C1416.88 394.234 1415.44 393.637 1414.38 392.573C1413.32 391.509 1412.73 390.067 1412.73 388.562C1412.73 387.058 1413.32 385.616 1414.38 384.552C1415.44 383.488 1416.88 382.891 1418.38 382.891H1478.62C1480.12 382.891 1481.56 383.488 1482.62 384.552C1483.68 385.616 1484.27 387.058 1484.27 388.562ZM1484.27 418.812C1484.27 420.317 1483.68 421.759 1482.62 422.823C1481.56 423.887 1480.12 424.484 1478.62 424.484H1418.38C1416.88 424.484 1415.44 423.887 1414.38 422.823C1413.32 421.759 1412.73 420.317 1412.73 418.812C1412.73 417.308 1413.32 415.866 1414.38 414.802C1415.44 413.738 1416.88 413.141 1418.38 413.141H1478.62C1480.12 413.141 1481.56 413.738 1482.62 414.802C1483.68 415.866 1484.27 417.308 1484.27 418.812Z" fill="#424242"/>
<circle cx="1151.25" cy="377" r="36" fill="#424242"/>
<path d="M1152 339.625C1144.61 339.625 1137.38 341.817 1131.24 345.924C1125.09 350.031 1120.3 355.868 1117.47 362.697C1114.64 369.527 1113.9 377.041 1115.34 384.292C1116.79 391.542 1120.34 398.201 1125.57 403.428C1130.8 408.655 1137.46 412.215 1144.71 413.657C1151.96 415.099 1159.47 414.359 1166.3 411.53C1173.13 408.701 1178.97 403.911 1183.08 397.764C1187.18 391.618 1189.38 384.392 1189.38 377C1189.36 367.091 1185.42 357.59 1178.42 350.583C1171.41 343.577 1161.91 339.635 1152 339.625ZM1165.53 357.716C1165.27 357.449 1164.95 357.237 1164.6 357.092C1164.25 356.947 1163.88 356.873 1163.5 356.873C1163.12 356.873 1162.75 356.947 1162.4 357.092C1162.05 357.237 1161.73 357.449 1161.47 357.716L1137.3 382.391C1136.5 383.191 1135.86 384.141 1135.42 385.187C1134.99 386.234 1134.76 387.355 1134.76 388.489C1134.76 389.622 1134.98 390.744 1135.42 391.791C1135.85 392.839 1136.48 393.791 1137.28 394.593C1138.08 395.396 1139.03 396.032 1140.08 396.467C1141.12 396.902 1142.25 397.127 1143.38 397.129C1144.51 397.13 1145.64 396.908 1146.68 396.476C1147.73 396.044 1148.68 395.41 1149.48 394.609L1167.21 376.526C1167.47 376.246 1167.79 376.021 1168.14 375.865C1168.49 375.708 1168.86 375.623 1169.25 375.615C1169.63 375.607 1170.01 375.675 1170.37 375.816C1170.72 375.958 1171.05 376.169 1171.32 376.437C1171.6 376.705 1171.81 377.026 1171.96 377.379C1172.11 377.733 1172.18 378.112 1172.18 378.496C1172.18 378.879 1172.11 379.258 1171.96 379.611C1171.81 379.964 1171.59 380.283 1171.31 380.551L1153.57 398.656C1152.24 400.017 1150.66 401.1 1148.91 401.844C1147.16 402.588 1145.28 402.977 1143.38 402.99C1141.48 403.002 1139.59 402.638 1137.83 401.917C1136.07 401.196 1134.47 400.133 1133.13 398.79C1131.78 397.447 1130.72 395.85 1129.99 394.092C1129.27 392.334 1128.9 390.45 1128.91 388.549C1128.92 386.648 1129.3 384.767 1130.04 383.016C1130.78 381.265 1131.86 379.678 1133.22 378.348L1157.39 353.673C1158.19 352.871 1159.14 352.234 1160.19 351.799C1161.23 351.364 1162.36 351.139 1163.49 351.138C1164.62 351.136 1165.74 351.358 1166.79 351.79C1167.84 352.222 1168.79 352.857 1169.59 353.657C1170.4 354.457 1171.03 355.407 1171.47 356.454C1171.9 357.5 1172.13 358.622 1172.13 359.755C1172.13 360.888 1171.91 362.01 1171.48 363.058C1171.04 364.105 1170.41 365.057 1169.61 365.859L1145.43 390.513C1145.17 390.792 1144.85 391.017 1144.5 391.174C1144.15 391.33 1143.77 391.415 1143.39 391.423C1143.01 391.431 1142.63 391.363 1142.27 391.222C1141.91 391.081 1141.59 390.87 1141.31 390.601C1141.04 390.333 1140.82 390.012 1140.68 389.659C1140.53 389.305 1140.45 388.926 1140.45 388.543C1140.45 388.159 1140.53 387.78 1140.68 387.427C1140.83 387.074 1141.05 386.755 1141.32 386.487L1165.51 361.802C1165.78 361.536 1166 361.219 1166.15 360.869C1166.3 360.519 1166.37 360.143 1166.38 359.763C1166.38 359.384 1166.3 359.007 1166.16 358.655C1166.02 358.304 1165.8 357.985 1165.53 357.716Z" fill="white"/>
<circle cx="568" cy="655.875" r="34" fill="#424242" stroke="#424242" stroke-width="4"/>
<path d="M568 618.625C560.608 618.625 553.382 620.817 547.236 624.924C541.089 629.031 536.299 634.868 533.47 641.697C530.641 648.527 529.901 656.041 531.343 663.292C532.785 670.542 536.345 677.201 541.572 682.428C546.799 687.655 553.458 691.215 560.709 692.657C567.959 694.099 575.473 693.359 582.303 690.53C589.132 687.701 594.969 682.911 599.076 676.764C603.183 670.618 605.375 663.392 605.375 656C605.365 646.091 601.423 636.59 594.417 629.583C587.41 622.577 577.909 618.635 568 618.625ZM581.534 636.716C581.267 636.449 580.95 636.237 580.601 636.092C580.252 635.947 579.878 635.873 579.5 635.873C579.122 635.873 578.748 635.947 578.399 636.092C578.05 636.237 577.733 636.449 577.466 636.716L553.298 661.391C552.496 662.191 551.859 663.141 551.424 664.187C550.989 665.234 550.764 666.355 550.763 667.489C550.761 668.622 550.983 669.744 551.415 670.791C551.847 671.839 552.482 672.791 553.282 673.593C554.082 674.396 555.032 675.032 556.079 675.467C557.125 675.902 558.247 676.127 559.38 676.129C560.513 676.13 561.635 675.908 562.683 675.476C563.73 675.044 564.682 674.41 565.484 673.609L583.209 655.526C583.471 655.246 583.786 655.021 584.136 654.865C584.486 654.708 584.863 654.623 585.246 654.615C585.63 654.607 586.011 654.675 586.367 654.816C586.723 654.958 587.048 655.169 587.322 655.437C587.595 655.705 587.812 656.026 587.96 656.379C588.108 656.733 588.184 657.112 588.183 657.496C588.183 657.879 588.105 658.258 587.956 658.611C587.806 658.964 587.588 659.283 587.313 659.551L569.57 677.656C568.243 679.017 566.658 680.1 564.908 680.844C563.159 681.588 561.279 681.977 559.377 681.99C557.476 682.002 555.591 681.638 553.832 680.917C552.073 680.196 550.474 679.133 549.129 677.79C547.783 676.447 546.717 674.85 545.993 673.092C545.268 671.334 544.9 669.45 544.909 667.549C544.917 665.648 545.303 663.767 546.044 662.016C546.784 660.265 547.865 658.678 549.223 657.348L573.391 632.673C574.191 631.871 575.141 631.234 576.187 630.799C577.234 630.364 578.355 630.139 579.489 630.138C580.622 630.136 581.744 630.358 582.791 630.79C583.839 631.222 584.791 631.857 585.593 632.657C586.396 633.457 587.032 634.407 587.467 635.454C587.902 636.5 588.127 637.622 588.129 638.755C588.13 639.888 587.908 641.01 587.476 642.058C587.044 643.105 586.41 644.057 585.609 644.859L561.427 669.513C561.165 669.792 560.85 670.017 560.5 670.174C560.15 670.33 559.773 670.415 559.389 670.423C559.006 670.431 558.625 670.363 558.269 670.222C557.912 670.081 557.588 669.87 557.314 669.601C557.041 669.333 556.823 669.012 556.675 668.659C556.527 668.305 556.452 667.926 556.452 667.543C556.453 667.159 556.531 666.78 556.68 666.427C556.83 666.074 557.048 665.755 557.323 665.487L581.513 640.802C581.784 640.536 582 640.219 582.148 639.869C582.296 639.519 582.374 639.143 582.376 638.763C582.378 638.384 582.304 638.007 582.16 637.655C582.015 637.304 581.803 636.985 581.534 636.716Z" fill="white"/>
<path d="M937.641 299.621H771.609C768.107 299.621 764.747 301.013 762.271 303.489C759.794 305.966 758.402 309.325 758.402 312.828V448.672C758.402 452.175 759.794 455.534 762.271 458.011C764.747 460.487 768.107 461.879 771.609 461.879H937.641C941.143 461.879 944.503 460.487 946.979 458.011C949.456 455.534 950.848 452.175 950.848 448.672V312.828C950.848 309.325 949.456 305.966 946.979 303.489C944.503 301.013 941.143 299.621 937.641 299.621ZM939.527 448.672C939.527 449.172 939.329 449.652 938.975 450.006C938.621 450.36 938.141 450.559 937.641 450.559H771.609C771.109 450.559 770.629 450.36 770.275 450.006C769.921 449.652 769.723 449.172 769.723 448.672V312.828C769.723 312.328 769.921 311.848 770.275 311.494C770.629 311.14 771.109 310.941 771.609 310.941H937.641C938.141 310.941 938.621 311.14 938.975 311.494C939.329 311.848 939.527 312.328 939.527 312.828V448.672ZM905.566 350.562C905.566 352.064 904.97 353.503 903.909 354.565C902.847 355.626 901.407 356.223 899.906 356.223H809.344C807.843 356.223 806.403 355.626 805.341 354.565C804.28 353.503 803.684 352.064 803.684 350.562C803.684 349.061 804.28 347.622 805.341 346.56C806.403 345.499 807.843 344.902 809.344 344.902H899.906C901.407 344.902 902.847 345.499 903.909 346.56C904.97 347.622 905.566 349.061 905.566 350.562ZM905.566 380.75C905.566 382.251 904.97 383.691 903.909 384.752C902.847 385.814 901.407 386.41 899.906 386.41H809.344C807.843 386.41 806.403 385.814 805.341 384.752C804.28 383.691 803.684 382.251 803.684 380.75C803.684 379.249 804.28 377.809 805.341 376.748C806.403 375.686 807.843 375.09 809.344 375.09H899.906C901.407 375.09 902.847 375.686 903.909 376.748C904.97 377.809 905.566 379.249 905.566 380.75ZM905.566 410.938C905.566 412.439 904.97 413.878 903.909 414.94C902.847 416.001 901.407 416.598 899.906 416.598H809.344C807.843 416.598 806.403 416.001 805.341 414.94C804.28 413.878 803.684 412.439 803.684 410.938C803.684 409.436 804.28 407.997 805.341 406.935C806.403 405.874 807.843 405.277 809.344 405.277H899.906C901.407 405.277 902.847 405.874 903.909 406.935C904.97 407.997 905.566 409.436 905.566 410.938Z" fill="#424242"/>
<rect x="770" y="311" width="170" height="139" rx="4" fill="white"/>
<path d="M831.895 350.562C831.895 348.918 832.548 347.342 833.71 346.179C834.873 345.016 836.45 344.363 838.094 344.363H900.086C901.73 344.363 903.307 345.016 904.469 346.179C905.632 347.342 906.285 348.918 906.285 350.562C906.285 352.207 905.632 353.783 904.469 354.946C903.307 356.109 901.73 356.762 900.086 356.762H838.094C836.45 356.762 834.873 356.109 833.71 354.946C832.548 353.783 831.895 352.207 831.895 350.562ZM900.086 377.426H838.094C836.45 377.426 834.873 378.079 833.71 379.241C832.548 380.404 831.895 381.981 831.895 383.625C831.895 385.269 832.548 386.846 833.71 388.009C834.873 389.171 836.45 389.824 838.094 389.824H900.086C901.73 389.824 903.307 389.171 904.469 388.009C905.632 386.846 906.285 385.269 906.285 383.625C906.285 381.981 905.632 380.404 904.469 379.241C903.307 378.079 901.73 377.426 900.086 377.426ZM900.086 410.488H838.094C836.45 410.488 834.873 411.141 833.71 412.304C832.548 413.467 831.895 415.043 831.895 416.688C831.895 418.332 832.548 419.908 833.71 421.071C834.873 422.234 836.45 422.887 838.094 422.887H900.086C901.73 422.887 903.307 422.234 904.469 421.071C905.632 419.908 906.285 418.332 906.285 416.688C906.285 415.043 905.632 413.467 904.469 412.304C903.307 411.141 901.73 410.488 900.086 410.488ZM817.43 344.363H809.164C807.52 344.363 805.943 345.016 804.781 346.179C803.618 347.342 802.965 348.918 802.965 350.562C802.965 352.207 803.618 353.783 804.781 354.946C805.943 356.109 807.52 356.762 809.164 356.762H817.43C819.074 356.762 820.651 356.109 821.813 354.946C822.976 353.783 823.629 352.207 823.629 350.562C823.629 348.918 822.976 347.342 821.813 346.179C820.651 345.016 819.074 344.363 817.43 344.363ZM817.43 377.426H809.164C807.52 377.426 805.943 378.079 804.781 379.241C803.618 380.404 802.965 381.981 802.965 383.625C802.965 385.269 803.618 386.846 804.781 388.009C805.943 389.171 807.52 389.824 809.164 389.824H817.43C819.074 389.824 820.651 389.171 821.813 388.009C822.976 386.846 823.629 385.269 823.629 383.625C823.629 381.981 822.976 380.404 821.813 379.241C820.651 378.079 819.074 377.426 817.43 377.426ZM817.43 410.488H809.164C807.52 410.488 805.943 411.141 804.781 412.304C803.618 413.467 802.965 415.043 802.965 416.688C802.965 418.332 803.618 419.908 804.781 421.071C805.943 422.234 807.52 422.887 809.164 422.887H817.43C819.074 422.887 820.651 422.234 821.813 421.071C822.976 419.908 823.629 418.332 823.629 416.688C823.629 415.043 822.976 413.467 821.813 412.304C820.651 411.141 819.074 410.488 817.43 410.488Z" fill="#424242"/>
<path d="M547.095 278.8C552.001 275.12 555.788 271.827 558.455 268.92C561.148 265.987 562.495 263.12 562.495 260.32C562.495 258.48 562.028 257.013 561.095 255.92C560.188 254.8 558.695 254.24 556.615 254.24C554.588 254.24 553.015 254.88 551.895 256.16C550.801 257.413 550.188 259.093 550.055 261.2H547.335C547.495 258.24 548.401 255.947 550.055 254.32C551.735 252.667 553.921 251.84 556.615 251.84C559.201 251.84 561.295 252.573 562.895 254.04C564.495 255.48 565.295 257.533 565.295 260.2C565.295 263.427 563.948 266.56 561.255 269.6C558.588 272.613 555.295 275.56 551.375 278.44H566.175V280.8H547.095V278.8Z" fill="#424242"/>
<path d="M1142.78 259.64C1142.97 257.213 1143.9 255.307 1145.58 253.92C1147.29 252.507 1149.49 251.8 1152.18 251.8C1153.97 251.8 1155.5 252.12 1156.78 252.76C1158.06 253.4 1159.02 254.28 1159.66 255.4C1160.33 256.493 1160.66 257.733 1160.66 259.12C1160.66 260.8 1160.17 262.253 1159.18 263.48C1158.19 264.707 1156.79 265.467 1154.98 265.76V265.96C1156.87 266.333 1158.38 267.16 1159.5 268.44C1160.62 269.693 1161.18 271.347 1161.18 273.4C1161.18 275.693 1160.41 277.573 1158.86 279.04C1157.34 280.48 1155.13 281.2 1152.22 281.2C1149.45 281.2 1147.17 280.48 1145.38 279.04C1143.59 277.573 1142.57 275.507 1142.3 272.84H1145.02C1145.26 274.627 1146.01 276.08 1147.26 277.2C1148.51 278.293 1150.17 278.84 1152.22 278.84C1154.25 278.84 1155.79 278.307 1156.86 277.24C1157.95 276.173 1158.5 274.813 1158.5 273.16C1158.5 269.107 1155.58 267.08 1149.74 267.08H1148.86V264.72H1149.78C1155.22 264.72 1157.94 262.947 1157.94 259.4C1157.94 257.853 1157.43 256.613 1156.42 255.68C1155.41 254.72 1153.97 254.24 1152.1 254.24C1150.29 254.24 1148.78 254.72 1147.58 255.68C1146.41 256.613 1145.71 257.933 1145.5 259.64H1142.78Z" fill="#424242"/>
<path d="M147.9 254.84V252.32H154.7V281H151.86V254.84H147.9Z" fill="#424242"/>
<path d="M557.094 563.2V561.08L571.654 541.48H574.974V560.76H579.254V563.2H574.974V570H572.214V563.2H557.094ZM572.334 544.56L560.334 560.76H572.334V544.56Z" fill="#424242"/>
</svg>
