<svg width="1680" height="920" viewBox="0 0 1680 920" fill="none" xmlns="http://www.w3.org/2000/svg">
<path d="M426 378C424.343 378 423 379.343 423 381C423 382.657 424.343 384 426 384L426 378ZM678.121 383.121C679.293 381.95 679.293 380.05 678.121 378.879L659.029 359.787C657.858 358.615 655.958 358.615 654.787 359.787C653.615 360.958 653.615 362.858 654.787 364.029L671.757 381L654.787 397.971C653.615 399.142 653.615 401.042 654.787 402.213C655.958 403.385 657.858 403.385 659.029 402.213L678.121 383.121ZM426 384L676 384L676 378L426 378L426 384Z" fill="#424242"/>
<circle cx="542.25" cy="381" r="36" fill="white"/>
<path d="M543 343.625C535.608 343.625 528.382 345.817 522.236 349.924C516.089 354.031 511.299 359.868 508.47 366.697C505.641 373.527 504.901 381.041 506.343 388.292C507.785 395.542 511.345 402.201 516.572 407.428C521.799 412.655 528.458 416.215 535.709 417.657C542.959 419.099 550.473 418.359 557.303 415.53C564.132 412.701 569.969 407.911 574.076 401.764C578.183 395.618 580.375 388.392 580.375 381C580.363 371.091 576.421 361.592 569.414 354.586C562.408 347.579 552.909 343.637 543 343.625ZM557.375 383.875H545.875V395.375C545.875 396.137 545.572 396.869 545.033 397.408C544.494 397.947 543.763 398.25 543 398.25C542.238 398.25 541.506 397.947 540.967 397.408C540.428 396.869 540.125 396.137 540.125 395.375V383.875H528.625C527.863 383.875 527.131 383.572 526.592 383.033C526.053 382.494 525.75 381.762 525.75 381C525.75 380.238 526.053 379.506 526.592 378.967C527.131 378.428 527.863 378.125 528.625 378.125H540.125V366.625C540.125 365.863 540.428 365.131 540.967 364.592C541.506 364.053 542.238 363.75 543 363.75C543.763 363.75 544.494 364.053 545.033 364.592C545.572 365.131 545.875 365.863 545.875 366.625V378.125H557.375C558.138 378.125 558.869 378.428 559.408 378.967C559.947 379.506 560.25 380.238 560.25 381C560.25 381.762 559.947 382.494 559.408 383.033C558.869 383.572 558.138 383.875 557.375 383.875Z" fill="#424242"/>
<path d="M1027 378C1025.34 378 1024 379.343 1024 381C1024 382.657 1025.34 384 1027 384V378ZM1279.12 383.121C1280.29 381.95 1280.29 380.05 1279.12 378.879L1260.03 359.787C1258.86 358.615 1256.96 358.615 1255.79 359.787C1254.62 360.958 1254.62 362.858 1255.79 364.029L1272.76 381L1255.79 397.971C1254.62 399.142 1254.62 401.042 1255.79 402.213C1256.96 403.385 1258.86 403.385 1260.03 402.213L1279.12 383.121ZM1027 384H1277V378H1027V384Z" fill="#424242"/>
<path d="M261.121 538.879C259.95 537.707 258.05 537.707 256.879 538.879L237.787 557.971C236.615 559.142 236.615 561.042 237.787 562.213C238.958 563.385 240.858 563.385 242.029 562.213L259 545.243L275.971 562.213C277.142 563.385 279.042 563.385 280.213 562.213C281.385 561.042 281.385 559.142 280.213 557.971L261.121 538.879ZM867 541C867 539.343 865.657 538 864 538C862.343 538 861 539.343 861 541L867 541ZM861 541L861 547.25L867 547.25L867 541L861 541ZM861 559.75L861 572.25L867 572.25L867 559.75L861 559.75ZM861 584.75L861 597.25L867 597.25L867 584.75L861 584.75ZM861 609.75L861 616L867 616L867 609.75L861 609.75ZM861 616C861 617.641 860.893 619.255 860.687 620.836L866.637 621.612C866.876 619.774 867 617.901 867 616L861 616ZM858.194 630.162C856.947 633.169 855.314 635.976 853.357 638.523L858.115 642.179C860.388 639.221 862.286 635.958 863.736 632.461L858.194 630.162ZM846.523 645.357C843.976 647.314 841.169 648.947 838.162 650.194L840.461 655.736C843.958 654.286 847.221 652.388 850.179 650.115L846.523 645.357ZM828.836 652.687C827.255 652.893 825.641 653 824 653L824 659C825.901 659 827.774 658.877 829.612 658.637L828.836 652.687ZM824 653L818.034 653L818.034 659L824 659L824 653ZM806.102 653L794.17 653L794.17 659L806.102 659L806.102 653ZM782.239 653L770.307 653L770.307 659L782.239 659L782.239 653ZM758.375 653L746.443 653L746.443 659L758.375 659L758.375 653ZM734.511 653L722.58 653L722.58 659L734.511 659L734.511 653ZM710.648 653L698.716 653L698.716 659L710.648 659L710.648 653ZM686.784 653L674.852 653L674.852 659L686.784 659L686.784 653ZM662.92 653L650.989 653L650.989 659L662.92 659L662.92 653ZM639.057 653L627.125 653L627.125 659L639.057 659L639.057 653ZM615.193 653L603.261 653L603.261 659L615.193 659L615.193 653ZM591.33 653L579.398 653L579.398 659L591.33 659L591.33 653ZM567.466 653L555.534 653L555.534 659L567.466 659L567.466 653ZM543.602 653L531.67 653L531.67 659L543.602 659L543.602 653ZM519.739 653L507.807 653L507.807 659L519.739 659L519.739 653ZM495.875 653L483.943 653L483.943 659L495.875 659L495.875 653ZM472.011 653L460.079 653L460.079 659L472.011 659L472.011 653ZM448.148 653L436.216 653L436.216 659L448.148 659L448.148 653ZM424.284 653L412.352 653L412.352 659L424.284 659L424.284 653ZM400.42 653L388.489 653L388.489 659L400.42 659L400.42 653ZM376.557 653L364.625 653L364.625 659L376.557 659L376.557 653ZM352.693 653L340.761 653L340.761 659L352.693 659L352.693 653ZM328.829 653L316.898 653L316.898 659L328.829 659L328.829 653ZM304.966 653L299 653L299 659L304.966 659L304.966 653ZM299 653C297.359 653 295.745 652.893 294.164 652.687L293.388 658.637C295.226 658.876 297.099 659 299 659L299 653ZM284.838 650.194C281.831 648.947 279.024 647.314 276.477 645.357L272.821 650.115C275.779 652.388 279.042 654.286 282.539 655.736L284.838 650.194ZM269.643 638.523C267.686 635.976 266.053 633.169 264.806 630.162L259.264 632.461C260.714 635.958 262.612 639.221 264.885 642.179L269.643 638.523ZM262.313 620.836C262.107 619.255 262 617.641 262 616L256 616C256 617.901 256.124 619.774 256.363 621.612L262.313 620.836ZM262 616L262 609.75L256 609.75L256 616L262 616ZM262 597.25L262 584.75L256 584.75L256 597.25L262 597.25ZM262 572.25L262 559.75L256 559.75L256 572.25L262 572.25ZM262 547.25L262 541L256 541L256 547.25L262 547.25Z" fill="#424242"/>
<path d="M339.633 339.179L286.696 286.242C285.633 285.178 284.191 284.579 282.688 284.578H191.938C188.428 284.578 185.061 285.972 182.579 288.454C180.097 290.936 178.703 294.303 178.703 297.812V464.188C178.703 467.697 180.097 471.064 182.579 473.546C185.061 476.028 188.428 477.422 191.938 477.422H328.062C331.572 477.422 334.939 476.028 337.421 473.546C339.903 471.064 341.297 467.697 341.297 464.188V343.188C341.296 341.684 340.697 340.242 339.633 339.179ZM288.359 303.938L321.937 337.516H288.359V303.938ZM328.062 466.078H191.938C191.436 466.078 190.955 465.879 190.601 465.524C190.246 465.17 190.047 464.689 190.047 464.188V297.812C190.047 297.311 190.246 296.83 190.601 296.476C190.955 296.121 191.436 295.922 191.938 295.922H277.016V343.188C277.016 344.692 277.613 346.134 278.677 347.198C279.741 348.262 281.183 348.859 282.688 348.859H329.953V464.188C329.953 464.689 329.754 465.17 329.399 465.524C329.045 465.879 328.564 466.078 328.062 466.078ZM295.922 388.562C295.922 390.067 295.324 391.509 294.261 392.573C293.197 393.637 291.754 394.234 290.25 394.234H229.75C228.246 394.234 226.803 393.637 225.739 392.573C224.676 391.509 224.078 390.067 224.078 388.562C224.078 387.058 224.676 385.616 225.739 384.552C226.803 383.488 228.246 382.891 229.75 382.891H290.25C291.754 382.891 293.197 383.488 294.261 384.552C295.324 385.616 295.922 387.058 295.922 388.562ZM295.922 418.812C295.922 420.317 295.324 421.759 294.261 422.823C293.197 423.887 291.754 424.484 290.25 424.484H229.75C228.246 424.484 226.803 423.887 225.739 422.823C224.676 421.759 224.078 420.317 224.078 418.812C224.078 417.308 224.676 415.866 225.739 414.802C226.803 413.738 228.246 413.141 229.75 413.141H290.25C291.754 413.141 293.197 413.738 294.261 414.802C295.324 415.866 295.922 417.308 295.922 418.812Z" fill="#424242"/>
<path d="M1527.8 339.179L1475.09 286.242C1474.03 285.178 1472.59 284.579 1471.09 284.578H1380.72C1377.22 284.578 1373.87 285.972 1371.4 288.454C1368.93 290.936 1367.54 294.303 1367.54 297.812V464.188C1367.54 467.697 1368.93 471.064 1371.4 473.546C1373.87 476.028 1377.22 477.422 1380.72 477.422H1516.28C1519.78 477.422 1523.13 476.028 1525.6 473.546C1528.07 471.064 1529.46 467.697 1529.46 464.188V343.188C1529.46 341.684 1528.86 340.242 1527.8 339.179ZM1476.74 303.938L1510.18 337.516H1476.74V303.938ZM1516.28 466.078H1380.72C1380.22 466.078 1379.74 465.879 1379.39 465.524C1379.03 465.17 1378.84 464.689 1378.84 464.188V297.812C1378.84 297.311 1379.03 296.83 1379.39 296.476C1379.74 296.121 1380.22 295.922 1380.72 295.922H1465.45V343.188C1465.45 344.692 1466.04 346.134 1467.1 347.198C1468.16 348.262 1469.6 348.859 1471.09 348.859H1518.16V464.188C1518.16 464.689 1517.97 465.17 1517.61 465.524C1517.26 465.879 1516.78 466.078 1516.28 466.078ZM1484.27 388.562C1484.27 390.067 1483.68 391.509 1482.62 392.573C1481.56 393.637 1480.12 394.234 1478.62 394.234H1418.38C1416.88 394.234 1415.44 393.637 1414.38 392.573C1413.32 391.509 1412.73 390.067 1412.73 388.562C1412.73 387.058 1413.32 385.616 1414.38 384.552C1415.44 383.488 1416.88 382.891 1418.38 382.891H1478.62C1480.12 382.891 1481.56 383.488 1482.62 384.552C1483.68 385.616 1484.27 387.058 1484.27 388.562ZM1484.27 418.812C1484.27 420.317 1483.68 421.759 1482.62 422.823C1481.56 423.887 1480.12 424.484 1478.62 424.484H1418.38C1416.88 424.484 1415.44 423.887 1414.38 422.823C1413.32 421.759 1412.73 420.317 1412.73 418.812C1412.73 417.308 1413.32 415.866 1414.38 414.802C1415.44 413.738 1416.88 413.141 1418.38 413.141H1478.62C1480.12 413.141 1481.56 413.738 1482.62 414.802C1483.68 415.866 1484.27 417.308 1484.27 418.812Z" fill="#424242"/>
<circle cx="543" cy="654.875" r="34" fill="white" stroke="white" stroke-width="4"/>
<path d="M543 617.625C535.608 617.625 528.382 619.817 522.236 623.924C516.089 628.031 511.299 633.868 508.47 640.697C505.641 647.527 504.901 655.041 506.343 662.292C507.785 669.542 511.345 676.201 516.572 681.428C521.799 686.655 528.458 690.215 535.709 691.657C542.959 693.099 550.473 692.359 557.303 689.53C564.132 686.701 569.969 681.911 574.076 675.764C578.183 669.618 580.375 662.392 580.375 655C580.365 645.091 576.423 635.59 569.417 628.583C562.41 621.577 552.909 617.635 543 617.625ZM556.534 635.716C556.267 635.449 555.95 635.237 555.601 635.092C555.252 634.947 554.878 634.873 554.5 634.873C554.122 634.873 553.748 634.947 553.399 635.092C553.05 635.237 552.733 635.449 552.466 635.716L528.298 660.391C527.496 661.191 526.859 662.141 526.424 663.187C525.989 664.234 525.764 665.355 525.763 666.489C525.761 667.622 525.983 668.744 526.415 669.791C526.847 670.839 527.482 671.791 528.282 672.593C529.082 673.396 530.032 674.032 531.079 674.467C532.125 674.902 533.247 675.127 534.38 675.129C535.513 675.13 536.635 674.908 537.683 674.476C538.73 674.044 539.682 673.41 540.484 672.609L558.209 654.526C558.471 654.246 558.786 654.021 559.136 653.865C559.486 653.708 559.863 653.623 560.246 653.615C560.63 653.607 561.011 653.675 561.367 653.816C561.723 653.958 562.048 654.169 562.322 654.437C562.595 654.705 562.812 655.026 562.96 655.379C563.108 655.733 563.184 656.112 563.183 656.496C563.183 656.879 563.105 657.258 562.956 657.611C562.806 657.964 562.588 658.283 562.313 658.551L544.57 676.656C543.243 678.017 541.658 679.1 539.908 679.844C538.159 680.588 536.279 680.977 534.377 680.99C532.476 681.002 530.591 680.638 528.832 679.917C527.073 679.196 525.474 678.133 524.129 676.79C522.783 675.447 521.717 673.85 520.993 672.092C520.268 670.334 519.9 668.45 519.909 666.549C519.917 664.648 520.303 662.767 521.044 661.016C521.784 659.265 522.865 657.678 524.223 656.348L548.391 631.673C549.191 630.871 550.141 630.234 551.187 629.799C552.234 629.364 553.355 629.139 554.489 629.138C555.622 629.136 556.744 629.358 557.791 629.79C558.839 630.222 559.791 630.857 560.593 631.657C561.396 632.457 562.032 633.407 562.467 634.454C562.902 635.5 563.127 636.622 563.129 637.755C563.13 638.888 562.908 640.01 562.476 641.058C562.044 642.105 561.41 643.057 560.609 643.859L536.427 668.513C536.165 668.792 535.85 669.017 535.5 669.174C535.15 669.33 534.773 669.415 534.389 669.423C534.006 669.431 533.625 669.363 533.269 669.222C532.912 669.081 532.588 668.87 532.314 668.601C532.041 668.333 531.823 668.012 531.675 667.659C531.527 667.305 531.452 666.926 531.452 666.543C531.453 666.159 531.531 665.78 531.68 665.427C531.83 665.074 532.048 664.755 532.323 664.487L556.513 639.802C556.784 639.536 557 639.219 557.148 638.869C557.296 638.519 557.374 638.143 557.376 637.763C557.378 637.384 557.304 637.007 557.16 636.655C557.015 636.304 556.803 635.985 556.534 635.716Z" fill="#424242"/>
<circle cx="1152" cy="380.875" r="34" fill="white" stroke="white" stroke-width="4"/>
<path d="M1152 343.625C1144.61 343.625 1137.38 345.817 1131.24 349.924C1125.09 354.031 1120.3 359.868 1117.47 366.697C1114.64 373.527 1113.9 381.041 1115.34 388.292C1116.79 395.542 1120.34 402.201 1125.57 407.428C1130.8 412.655 1137.46 416.215 1144.71 417.657C1151.96 419.099 1159.47 418.359 1166.3 415.53C1173.13 412.701 1178.97 407.911 1183.08 401.764C1187.18 395.618 1189.38 388.392 1189.38 381C1189.36 371.091 1185.42 361.59 1178.42 354.583C1171.41 347.577 1161.91 343.635 1152 343.625ZM1165.53 361.716C1165.27 361.449 1164.95 361.237 1164.6 361.092C1164.25 360.947 1163.88 360.873 1163.5 360.873C1163.12 360.873 1162.75 360.947 1162.4 361.092C1162.05 361.237 1161.73 361.449 1161.47 361.716L1137.3 386.391C1136.5 387.191 1135.86 388.141 1135.42 389.187C1134.99 390.234 1134.76 391.355 1134.76 392.489C1134.76 393.622 1134.98 394.744 1135.42 395.791C1135.85 396.839 1136.48 397.791 1137.28 398.593C1138.08 399.396 1139.03 400.032 1140.08 400.467C1141.12 400.902 1142.25 401.127 1143.38 401.129C1144.51 401.13 1145.64 400.908 1146.68 400.476C1147.73 400.044 1148.68 399.41 1149.48 398.609L1167.21 380.526C1167.47 380.246 1167.79 380.021 1168.14 379.865C1168.49 379.708 1168.86 379.623 1169.25 379.615C1169.63 379.607 1170.01 379.675 1170.37 379.816C1170.72 379.958 1171.05 380.169 1171.32 380.437C1171.6 380.705 1171.81 381.026 1171.96 381.379C1172.11 381.733 1172.18 382.112 1172.18 382.496C1172.18 382.879 1172.11 383.258 1171.96 383.611C1171.81 383.964 1171.59 384.283 1171.31 384.551L1153.57 402.656C1152.24 404.017 1150.66 405.1 1148.91 405.844C1147.16 406.588 1145.28 406.977 1143.38 406.99C1141.48 407.002 1139.59 406.638 1137.83 405.917C1136.07 405.196 1134.47 404.133 1133.13 402.79C1131.78 401.447 1130.72 399.85 1129.99 398.092C1129.27 396.334 1128.9 394.45 1128.91 392.549C1128.92 390.648 1129.3 388.767 1130.04 387.016C1130.78 385.265 1131.86 383.678 1133.22 382.348L1157.39 357.673C1158.19 356.871 1159.14 356.234 1160.19 355.799C1161.23 355.364 1162.36 355.139 1163.49 355.138C1164.62 355.136 1165.74 355.358 1166.79 355.79C1167.84 356.222 1168.79 356.857 1169.59 357.657C1170.4 358.457 1171.03 359.407 1171.47 360.454C1171.9 361.5 1172.13 362.622 1172.13 363.755C1172.13 364.888 1171.91 366.01 1171.48 367.058C1171.04 368.105 1170.41 369.057 1169.61 369.859L1145.43 394.513C1145.17 394.792 1144.85 395.017 1144.5 395.174C1144.15 395.33 1143.77 395.415 1143.39 395.423C1143.01 395.431 1142.63 395.363 1142.27 395.222C1141.91 395.081 1141.59 394.87 1141.31 394.601C1141.04 394.333 1140.82 394.012 1140.68 393.659C1140.53 393.305 1140.45 392.926 1140.45 392.543C1140.45 392.159 1140.53 391.78 1140.68 391.427C1140.83 391.074 1141.05 390.755 1141.32 390.487L1165.51 365.802C1165.78 365.536 1166 365.219 1166.15 364.869C1166.3 364.519 1166.37 364.143 1166.38 363.763C1166.38 363.384 1166.3 363.007 1166.16 362.655C1166.02 362.304 1165.8 361.985 1165.53 361.716Z" fill="#424242"/>
<path d="M854.625 284.527C804.901 284.527 765.949 306.904 765.949 335.469V426.031C765.949 454.596 804.901 476.973 854.625 476.973C904.349 476.973 943.301 454.596 943.301 426.031V335.469C943.301 306.904 904.349 284.527 854.625 284.527ZM854.625 295.848C896.557 295.848 931.98 313.988 931.98 335.469C931.98 356.949 896.557 375.09 854.625 375.09C812.693 375.09 777.27 356.949 777.27 335.469C777.27 313.988 812.693 295.848 854.625 295.848ZM931.98 426.031C931.98 447.512 896.557 465.652 854.625 465.652C812.693 465.652 777.27 447.512 777.27 426.031V406.023C792.363 421.465 821.013 431.691 854.625 431.691C888.237 431.691 916.887 421.465 931.98 406.023V426.031ZM931.98 380.75C931.98 402.23 896.557 420.371 854.625 420.371C812.693 420.371 777.27 402.23 777.27 380.75V360.741C792.363 376.184 821.013 386.41 854.625 386.41C888.237 386.41 916.887 376.184 931.98 360.741V380.75Z" fill="#424242"/>
<path d="M534.095 268.8C539.001 265.12 542.788 261.827 545.455 258.92C548.148 255.987 549.495 253.12 549.495 250.32C549.495 248.48 549.028 247.013 548.095 245.92C547.188 244.8 545.695 244.24 543.615 244.24C541.588 244.24 540.015 244.88 538.895 246.16C537.801 247.413 537.188 249.093 537.055 251.2H534.335C534.495 248.24 535.401 245.947 537.055 244.32C538.735 242.667 540.921 241.84 543.615 241.84C546.201 241.84 548.295 242.573 549.895 244.04C551.495 245.48 552.295 247.533 552.295 250.2C552.295 253.427 550.948 256.56 548.255 259.6C545.588 262.613 542.295 265.56 538.375 268.44H553.175V270.8H534.095V268.8Z" fill="#424242"/>
<path d="M1142.78 249.64C1142.97 247.213 1143.9 245.307 1145.58 243.92C1147.29 242.507 1149.49 241.8 1152.18 241.8C1153.97 241.8 1155.5 242.12 1156.78 242.76C1158.06 243.4 1159.02 244.28 1159.66 245.4C1160.33 246.493 1160.66 247.733 1160.66 249.12C1160.66 250.8 1160.17 252.253 1159.18 253.48C1158.19 254.707 1156.79 255.467 1154.98 255.76V255.96C1156.87 256.333 1158.38 257.16 1159.5 258.44C1160.62 259.693 1161.18 261.347 1161.18 263.4C1161.18 265.693 1160.41 267.573 1158.86 269.04C1157.34 270.48 1155.13 271.2 1152.22 271.2C1149.45 271.2 1147.17 270.48 1145.38 269.04C1143.59 267.573 1142.57 265.507 1142.3 262.84H1145.02C1145.26 264.627 1146.01 266.08 1147.26 267.2C1148.51 268.293 1150.17 268.84 1152.22 268.84C1154.25 268.84 1155.79 268.307 1156.86 267.24C1157.95 266.173 1158.5 264.813 1158.5 263.16C1158.5 259.107 1155.58 257.08 1149.74 257.08H1148.86V254.72H1149.78C1155.22 254.72 1157.94 252.947 1157.94 249.4C1157.94 247.853 1157.43 246.613 1156.42 245.68C1155.41 244.72 1153.97 244.24 1152.1 244.24C1150.29 244.24 1148.78 244.72 1147.58 245.68C1146.41 246.613 1145.71 247.933 1145.5 249.64H1142.78Z" fill="#424242"/>
<path d="M147.9 244.84V242.32H154.7V271H151.86V244.84H147.9Z" fill="#424242"/>
<path d="M532.094 548.2V546.08L546.654 526.48H549.974V545.76H554.254V548.2H549.974V555H547.214V548.2H532.094ZM547.334 529.56L535.334 545.76H547.334V529.56Z" fill="#424242"/>
</svg>
