<svg width="1680" height="642" viewBox="0 0 1680 642" fill="none" xmlns="http://www.w3.org/2000/svg">
<path d="M426 243C424.343 243 423 244.343 423 246C423 247.657 424.343 249 426 249L426 243ZM678.121 248.121C679.293 246.95 679.293 245.05 678.121 243.879L659.029 224.787C657.858 223.615 655.958 223.615 654.787 224.787C653.615 225.958 653.615 227.858 654.787 229.029L671.757 246L654.787 262.971C653.615 264.142 653.615 266.042 654.787 267.213C655.958 268.385 657.858 268.385 659.029 267.213L678.121 248.121ZM426 249L676 249L676 243L426 243L426 249Z" fill="#424242"/>
<circle cx="547.25" cy="246" r="36" fill="white"/>
<path d="M548 208.625C540.608 208.625 533.382 210.817 527.236 214.924C521.089 219.031 516.299 224.868 513.47 231.697C510.641 238.527 509.901 246.041 511.343 253.292C512.785 260.542 516.345 267.201 521.572 272.428C526.799 277.655 533.458 281.215 540.708 282.657C547.959 284.099 555.473 283.359 562.303 280.53C569.132 277.701 574.969 272.911 579.076 266.764C583.183 260.618 585.375 253.392 585.375 246C585.363 236.091 581.421 226.592 574.414 219.586C567.408 212.579 557.909 208.637 548 208.625ZM562.375 248.875H550.875V260.375C550.875 261.137 550.572 261.869 550.033 262.408C549.494 262.947 548.762 263.25 548 263.25C547.237 263.25 546.506 262.947 545.967 262.408C545.428 261.869 545.125 261.137 545.125 260.375V248.875H533.625C532.862 248.875 532.131 248.572 531.592 248.033C531.053 247.494 530.75 246.762 530.75 246C530.75 245.238 531.053 244.506 531.592 243.967C532.131 243.428 532.862 243.125 533.625 243.125H545.125V231.625C545.125 230.863 545.428 230.131 545.967 229.592C546.506 229.053 547.237 228.75 548 228.75C548.762 228.75 549.494 229.053 550.033 229.592C550.572 230.131 550.875 230.863 550.875 231.625V243.125H562.375C563.137 243.125 563.869 243.428 564.408 243.967C564.947 244.506 565.25 245.238 565.25 246C565.25 246.762 564.947 247.494 564.408 248.033C563.869 248.572 563.137 248.875 562.375 248.875Z" fill="#424242"/>
<path d="M1027 243C1025.34 243 1024 244.343 1024 246C1024 247.657 1025.34 249 1027 249V243ZM1279.12 248.121C1280.29 246.95 1280.29 245.05 1279.12 243.879L1260.03 224.787C1258.86 223.615 1256.96 223.615 1255.79 224.787C1254.62 225.958 1254.62 227.858 1255.79 229.029L1272.76 246L1255.79 262.971C1254.62 264.142 1254.62 266.042 1255.79 267.213C1256.96 268.385 1258.86 268.385 1260.03 267.213L1279.12 248.121ZM1027 249H1277V243H1027V249Z" fill="#424242"/>
<path d="M261.121 403.879C259.95 402.707 258.05 402.707 256.879 403.879L237.787 422.971C236.615 424.142 236.615 426.042 237.787 427.213C238.958 428.385 240.858 428.385 242.029 427.213L259 410.243L275.971 427.213C277.142 428.385 279.042 428.385 280.213 427.213C281.385 426.042 281.385 424.142 280.213 422.971L261.121 403.879ZM867 406C867 404.343 865.657 403 864 403C862.343 403 861 404.343 861 406L867 406ZM861 406L861 412.25L867 412.25L867 406L861 406ZM861 424.75L861 437.25L867 437.25L867 424.75L861 424.75ZM861 449.75L861 462.25L867 462.25L867 449.75L861 449.75ZM861 474.75L861 481L867 481L867 474.75L861 474.75ZM861 481C861 482.641 860.893 484.255 860.687 485.836L866.637 486.612C866.876 484.774 867 482.901 867 481L861 481ZM858.194 495.162C856.947 498.169 855.314 500.976 853.357 503.523L858.115 507.179C860.388 504.221 862.286 500.958 863.736 497.461L858.194 495.162ZM846.523 510.357C843.976 512.314 841.169 513.947 838.162 515.194L840.461 520.736C843.958 519.286 847.221 517.388 850.179 515.115L846.523 510.357ZM828.836 517.687C827.255 517.893 825.641 518 824 518L824 524C825.901 524 827.774 523.877 829.612 523.637L828.836 517.687ZM824 518L818.034 518L818.034 524L824 524L824 518ZM806.102 518L794.17 518L794.17 524L806.102 524L806.102 518ZM782.239 518L770.307 518L770.307 524L782.239 524L782.239 518ZM758.375 518L746.443 518L746.443 524L758.375 524L758.375 518ZM734.511 518L722.58 518L722.58 524L734.511 524L734.511 518ZM710.648 518L698.716 518L698.716 524L710.648 524L710.648 518ZM686.784 518L674.852 518L674.852 524L686.784 524L686.784 518ZM662.92 518L650.989 518L650.989 524L662.92 524L662.92 518ZM639.057 518L627.125 518L627.125 524L639.057 524L639.057 518ZM615.193 518L603.261 518L603.261 524L615.193 524L615.193 518ZM591.33 518L579.398 518L579.398 524L591.33 524L591.33 518ZM567.466 518L555.534 518L555.534 524L567.466 524L567.466 518ZM543.602 518L531.67 518L531.67 524L543.602 524L543.602 518ZM519.739 518L507.807 518L507.807 524L519.739 524L519.739 518ZM495.875 518L483.943 518L483.943 524L495.875 524L495.875 518ZM472.011 518L460.079 518L460.079 524L472.011 524L472.011 518ZM448.148 518L436.216 518L436.216 524L448.148 524L448.148 518ZM424.284 518L412.352 518L412.352 524L424.284 524L424.284 518ZM400.42 518L388.489 518L388.489 524L400.42 524L400.42 518ZM376.557 518L364.625 518L364.625 524L376.557 524L376.557 518ZM352.693 518L340.761 518L340.761 524L352.693 524L352.693 518ZM328.829 518L316.898 518L316.898 524L328.829 524L328.829 518ZM304.966 518L299 518L299 524L304.966 524L304.966 518ZM299 518C297.359 518 295.745 517.893 294.164 517.687L293.388 523.637C295.226 523.876 297.099 524 299 524L299 518ZM284.838 515.194C281.831 513.947 279.024 512.314 276.477 510.357L272.821 515.115C275.779 517.388 279.042 519.286 282.539 520.736L284.838 515.194ZM269.643 503.523C267.686 500.976 266.053 498.169 264.806 495.162L259.264 497.461C260.714 500.958 262.612 504.221 264.885 507.179L269.643 503.523ZM262.313 485.836C262.107 484.255 262 482.641 262 481L256 481C256 482.901 256.124 484.774 256.363 486.612L262.313 485.836ZM262 481L262 474.75L256 474.75L256 481L262 481ZM262 462.25L262 449.75L256 449.75L256 462.25L262 462.25ZM262 437.25L262 424.75L256 424.75L256 437.25L262 437.25ZM262 412.25L262 406L256 406L256 412.25L262 412.25Z" fill="#424242"/>
<path d="M339.633 204.179L286.696 151.242C285.633 150.178 284.191 149.579 282.688 149.578H191.938C188.428 149.578 185.061 150.972 182.579 153.454C180.097 155.936 178.703 159.303 178.703 162.812V329.188C178.703 332.697 180.097 336.064 182.579 338.546C185.061 341.028 188.428 342.422 191.938 342.422H328.062C331.572 342.422 334.939 341.028 337.421 338.546C339.903 336.064 341.297 332.697 341.297 329.188V208.188C341.296 206.684 340.697 205.242 339.633 204.179ZM288.359 168.938L321.937 202.516H288.359V168.938ZM328.062 331.078H191.938C191.436 331.078 190.955 330.879 190.601 330.524C190.246 330.17 190.047 329.689 190.047 329.188V162.812C190.047 162.311 190.246 161.83 190.601 161.476C190.955 161.121 191.436 160.922 191.938 160.922H277.016V208.188C277.016 209.692 277.613 211.134 278.677 212.198C279.741 213.262 281.183 213.859 282.688 213.859H329.953V329.188C329.953 329.689 329.754 330.17 329.399 330.524C329.045 330.879 328.564 331.078 328.062 331.078ZM295.922 253.562C295.922 255.067 295.324 256.509 294.261 257.573C293.197 258.637 291.754 259.234 290.25 259.234H229.75C228.246 259.234 226.803 258.637 225.739 257.573C224.676 256.509 224.078 255.067 224.078 253.562C224.078 252.058 224.676 250.616 225.739 249.552C226.803 248.488 228.246 247.891 229.75 247.891H290.25C291.754 247.891 293.197 248.488 294.261 249.552C295.324 250.616 295.922 252.058 295.922 253.562ZM295.922 283.812C295.922 285.317 295.324 286.759 294.261 287.823C293.197 288.887 291.754 289.484 290.25 289.484H229.75C228.246 289.484 226.803 288.887 225.739 287.823C224.676 286.759 224.078 285.317 224.078 283.812C224.078 282.308 224.676 280.866 225.739 279.802C226.803 278.738 228.246 278.141 229.75 278.141H290.25C291.754 278.141 293.197 278.738 294.261 279.802C295.324 280.866 295.922 282.308 295.922 283.812Z" fill="#424242"/>
<path d="M1527.8 204.179L1475.09 151.242C1474.03 150.178 1472.59 149.579 1471.09 149.578H1380.72C1377.22 149.578 1373.87 150.972 1371.4 153.454C1368.93 155.936 1367.54 159.303 1367.54 162.812V329.188C1367.54 332.697 1368.93 336.064 1371.4 338.546C1373.87 341.028 1377.22 342.422 1380.72 342.422H1516.28C1519.78 342.422 1523.13 341.028 1525.6 338.546C1528.07 336.064 1529.46 332.697 1529.46 329.188V208.188C1529.46 206.684 1528.86 205.242 1527.8 204.179ZM1476.74 168.938L1510.18 202.516H1476.74V168.938ZM1516.28 331.078H1380.72C1380.22 331.078 1379.74 330.879 1379.39 330.524C1379.03 330.17 1378.84 329.689 1378.84 329.188V162.812C1378.84 162.311 1379.03 161.83 1379.39 161.476C1379.74 161.121 1380.22 160.922 1380.72 160.922H1465.45V208.188C1465.45 209.692 1466.04 211.134 1467.1 212.198C1468.16 213.262 1469.6 213.859 1471.09 213.859H1518.16V329.188C1518.16 329.689 1517.97 330.17 1517.61 330.524C1517.26 330.879 1516.78 331.078 1516.28 331.078ZM1484.27 253.562C1484.27 255.067 1483.68 256.509 1482.62 257.573C1481.56 258.637 1480.12 259.234 1478.62 259.234H1418.38C1416.88 259.234 1415.44 258.637 1414.38 257.573C1413.32 256.509 1412.73 255.067 1412.73 253.562C1412.73 252.058 1413.32 250.616 1414.38 249.552C1415.44 248.488 1416.88 247.891 1418.38 247.891H1478.62C1480.12 247.891 1481.56 248.488 1482.62 249.552C1483.68 250.616 1484.27 252.058 1484.27 253.562ZM1484.27 283.812C1484.27 285.317 1483.68 286.759 1482.62 287.823C1481.56 288.887 1480.12 289.484 1478.62 289.484H1418.38C1416.88 289.484 1415.44 288.887 1414.38 287.823C1413.32 286.759 1412.73 285.317 1412.73 283.812C1412.73 282.308 1413.32 280.866 1414.38 279.802C1415.44 278.738 1416.88 278.141 1418.38 278.141H1478.62C1480.12 278.141 1481.56 278.738 1482.62 279.802C1483.68 280.866 1484.27 282.308 1484.27 283.812Z" fill="#424242"/>
<circle cx="548" cy="519.875" r="34" fill="white" stroke="white" stroke-width="4"/>
<path d="M548 482.625C540.608 482.625 533.382 484.817 527.236 488.924C521.089 493.031 516.299 498.868 513.47 505.697C510.641 512.527 509.901 520.041 511.343 527.292C512.785 534.542 516.345 541.201 521.572 546.428C526.799 551.655 533.458 555.215 540.708 556.657C547.959 558.099 555.473 557.359 562.303 554.53C569.132 551.701 574.969 546.911 579.076 540.764C583.183 534.618 585.375 527.392 585.375 520C585.365 510.091 581.423 500.59 574.417 493.583C567.41 486.577 557.909 482.635 548 482.625ZM561.534 500.716C561.267 500.449 560.95 500.237 560.601 500.092C560.252 499.947 559.878 499.873 559.5 499.873C559.122 499.873 558.748 499.947 558.399 500.092C558.05 500.237 557.733 500.449 557.466 500.716L533.298 525.391C532.496 526.191 531.859 527.141 531.424 528.187C530.989 529.234 530.764 530.355 530.763 531.489C530.761 532.622 530.983 533.744 531.415 534.791C531.847 535.839 532.482 536.791 533.282 537.593C534.082 538.395 535.032 539.032 536.079 539.467C537.125 539.902 538.247 540.127 539.38 540.129C540.513 540.13 541.635 539.908 542.683 539.476C543.73 539.044 544.682 538.41 545.484 537.609L563.209 519.526C563.471 519.246 563.786 519.021 564.136 518.865C564.486 518.708 564.863 518.623 565.246 518.615C565.63 518.607 566.011 518.675 566.367 518.816C566.723 518.958 567.048 519.169 567.322 519.437C567.595 519.705 567.812 520.026 567.96 520.379C568.108 520.733 568.184 521.112 568.183 521.496C568.183 521.879 568.105 522.258 567.956 522.611C567.806 522.964 567.588 523.283 567.313 523.551L549.57 541.656C548.242 543.017 546.658 544.1 544.908 544.844C543.158 545.588 541.279 545.977 539.377 545.99C537.476 546.002 535.591 545.638 533.832 544.917C532.073 544.196 530.474 543.133 529.129 541.79C527.783 540.447 526.717 538.85 525.993 537.092C525.268 535.334 524.9 533.45 524.908 531.549C524.917 529.648 525.303 527.767 526.044 526.016C526.784 524.265 527.865 522.678 529.223 521.348L553.391 496.673C554.191 495.871 555.141 495.234 556.187 494.799C557.234 494.364 558.355 494.139 559.489 494.138C560.622 494.136 561.744 494.358 562.791 494.79C563.839 495.222 564.791 495.857 565.593 496.657C566.395 497.457 567.032 498.407 567.467 499.454C567.902 500.5 568.127 501.622 568.129 502.755C568.13 503.888 567.908 505.01 567.476 506.058C567.044 507.105 566.41 508.057 565.609 508.859L541.427 533.513C541.165 533.792 540.85 534.017 540.5 534.174C540.15 534.33 539.773 534.415 539.389 534.423C539.006 534.431 538.625 534.363 538.269 534.222C537.912 534.081 537.588 533.87 537.314 533.601C537.041 533.333 536.823 533.012 536.675 532.659C536.527 532.305 536.452 531.926 536.452 531.543C536.453 531.159 536.531 530.78 536.68 530.427C536.83 530.074 537.048 529.755 537.323 529.487L561.512 504.802C561.784 504.536 562 504.219 562.148 503.869C562.296 503.519 562.374 503.143 562.376 502.763C562.378 502.384 562.304 502.007 562.16 501.655C562.015 501.304 561.803 500.985 561.534 500.716Z" fill="#424242"/>
<circle cx="1152" cy="245.875" r="34" fill="white" stroke="white" stroke-width="4"/>
<path d="M1152 208.625C1144.61 208.625 1137.38 210.817 1131.24 214.924C1125.09 219.031 1120.3 224.868 1117.47 231.697C1114.64 238.527 1113.9 246.041 1115.34 253.292C1116.79 260.542 1120.34 267.201 1125.57 272.428C1130.8 277.655 1137.46 281.215 1144.71 282.657C1151.96 284.099 1159.47 283.359 1166.3 280.53C1173.13 277.701 1178.97 272.911 1183.08 266.764C1187.18 260.618 1189.37 253.392 1189.37 246C1189.36 236.091 1185.42 226.59 1178.42 219.583C1171.41 212.577 1161.91 208.635 1152 208.625ZM1165.53 226.716C1165.27 226.449 1164.95 226.237 1164.6 226.092C1164.25 225.947 1163.88 225.873 1163.5 225.873C1163.12 225.873 1162.75 225.947 1162.4 226.092C1162.05 226.237 1161.73 226.449 1161.47 226.716L1137.3 251.391C1136.5 252.191 1135.86 253.141 1135.42 254.187C1134.99 255.234 1134.76 256.355 1134.76 257.489C1134.76 258.622 1134.98 259.744 1135.42 260.791C1135.85 261.839 1136.48 262.791 1137.28 263.593C1138.08 264.395 1139.03 265.032 1140.08 265.467C1141.12 265.902 1142.25 266.127 1143.38 266.129C1144.51 266.13 1145.64 265.908 1146.68 265.476C1147.73 265.044 1148.68 264.41 1149.48 263.609L1167.21 245.526C1167.47 245.246 1167.79 245.021 1168.14 244.865C1168.49 244.708 1168.86 244.623 1169.25 244.615C1169.63 244.607 1170.01 244.675 1170.37 244.816C1170.72 244.958 1171.05 245.169 1171.32 245.437C1171.6 245.705 1171.81 246.026 1171.96 246.379C1172.11 246.733 1172.18 247.112 1172.18 247.496C1172.18 247.879 1172.11 248.258 1171.96 248.611C1171.81 248.964 1171.59 249.283 1171.31 249.551L1153.57 267.656C1152.24 269.017 1150.66 270.1 1148.91 270.844C1147.16 271.588 1145.28 271.977 1143.38 271.99C1141.48 272.002 1139.59 271.638 1137.83 270.917C1136.07 270.196 1134.47 269.133 1133.13 267.79C1131.78 266.447 1130.72 264.85 1129.99 263.092C1129.27 261.334 1128.9 259.45 1128.91 257.549C1128.92 255.648 1129.3 253.767 1130.04 252.016C1130.78 250.265 1131.86 248.678 1133.22 247.348L1157.39 222.673C1158.19 221.871 1159.14 221.234 1160.19 220.799C1161.23 220.364 1162.36 220.139 1163.49 220.138C1164.62 220.136 1165.74 220.358 1166.79 220.79C1167.84 221.222 1168.79 221.857 1169.59 222.657C1170.4 223.457 1171.03 224.407 1171.47 225.454C1171.9 226.5 1172.13 227.622 1172.13 228.755C1172.13 229.888 1171.91 231.01 1171.48 232.058C1171.04 233.105 1170.41 234.057 1169.61 234.859L1145.43 259.513C1145.17 259.792 1144.85 260.017 1144.5 260.174C1144.15 260.33 1143.77 260.415 1143.39 260.423C1143.01 260.431 1142.63 260.363 1142.27 260.222C1141.91 260.081 1141.59 259.87 1141.31 259.601C1141.04 259.333 1140.82 259.012 1140.68 258.659C1140.53 258.305 1140.45 257.926 1140.45 257.543C1140.45 257.159 1140.53 256.78 1140.68 256.427C1140.83 256.074 1141.05 255.755 1141.32 255.487L1165.51 230.802C1165.78 230.536 1166 230.219 1166.15 229.869C1166.3 229.519 1166.37 229.143 1166.38 228.763C1166.38 228.384 1166.3 228.007 1166.16 227.655C1166.02 227.304 1165.8 226.985 1165.53 226.716Z" fill="#424242"/>
<path d="M937.641 164.621H771.609C768.107 164.621 764.747 166.013 762.271 168.489C759.794 170.966 758.402 174.325 758.402 177.828V313.672C758.402 317.175 759.794 320.534 762.271 323.011C764.747 325.487 768.107 326.879 771.609 326.879H937.641C941.143 326.879 944.503 325.487 946.979 323.011C949.456 320.534 950.848 317.175 950.848 313.672V177.828C950.848 174.325 949.456 170.966 946.979 168.489C944.503 166.013 941.143 164.621 937.641 164.621ZM939.527 313.672C939.527 314.172 939.329 314.652 938.975 315.006C938.621 315.36 938.141 315.559 937.641 315.559H771.609C771.109 315.559 770.629 315.36 770.275 315.006C769.921 314.652 769.723 314.172 769.723 313.672V177.828C769.723 177.328 769.921 176.848 770.275 176.494C770.629 176.14 771.109 175.941 771.609 175.941H937.641C938.141 175.941 938.621 176.14 938.975 176.494C939.329 176.848 939.527 177.328 939.527 177.828V313.672ZM905.566 215.562C905.566 217.064 904.97 218.503 903.909 219.565C902.847 220.626 901.407 221.223 899.906 221.223H809.344C807.843 221.223 806.403 220.626 805.341 219.565C804.28 218.503 803.684 217.064 803.684 215.562C803.684 214.061 804.28 212.622 805.341 211.56C806.403 210.499 807.843 209.902 809.344 209.902H899.906C901.407 209.902 902.847 210.499 903.909 211.56C904.97 212.622 905.566 214.061 905.566 215.562ZM905.566 245.75C905.566 247.251 904.97 248.691 903.909 249.752C902.847 250.814 901.407 251.41 899.906 251.41H809.344C807.843 251.41 806.403 250.814 805.341 249.752C804.28 248.691 803.684 247.251 803.684 245.75C803.684 244.249 804.28 242.809 805.341 241.748C806.403 240.686 807.843 240.09 809.344 240.09H899.906C901.407 240.09 902.847 240.686 903.909 241.748C904.97 242.809 905.566 244.249 905.566 245.75ZM905.566 275.938C905.566 277.439 904.97 278.878 903.909 279.94C902.847 281.001 901.407 281.598 899.906 281.598H809.344C807.843 281.598 806.403 281.001 805.341 279.94C804.28 278.878 803.684 277.439 803.684 275.938C803.684 274.436 804.28 272.997 805.341 271.935C806.403 270.874 807.843 270.277 809.344 270.277H899.906C901.407 270.277 902.847 270.874 903.909 271.935C904.97 272.997 905.566 274.436 905.566 275.938Z" fill="#424242"/>
<rect x="770" y="176" width="170" height="139" rx="4" fill="white"/>
<path d="M831.895 215.562C831.895 213.918 832.548 212.342 833.71 211.179C834.873 210.016 836.45 209.363 838.094 209.363H900.086C901.73 209.363 903.307 210.016 904.469 211.179C905.632 212.342 906.285 213.918 906.285 215.562C906.285 217.207 905.632 218.783 904.469 219.946C903.307 221.109 901.73 221.762 900.086 221.762H838.094C836.45 221.762 834.873 221.109 833.71 219.946C832.548 218.783 831.895 217.207 831.895 215.562ZM900.086 242.426H838.094C836.45 242.426 834.873 243.079 833.71 244.241C832.548 245.404 831.895 246.981 831.895 248.625C831.895 250.269 832.548 251.846 833.71 253.009C834.873 254.171 836.45 254.824 838.094 254.824H900.086C901.73 254.824 903.307 254.171 904.469 253.009C905.632 251.846 906.285 250.269 906.285 248.625C906.285 246.981 905.632 245.404 904.469 244.241C903.307 243.079 901.73 242.426 900.086 242.426ZM900.086 275.488H838.094C836.45 275.488 834.873 276.141 833.71 277.304C832.548 278.467 831.895 280.043 831.895 281.688C831.895 283.332 832.548 284.908 833.71 286.071C834.873 287.234 836.45 287.887 838.094 287.887H900.086C901.73 287.887 903.307 287.234 904.469 286.071C905.632 284.908 906.285 283.332 906.285 281.688C906.285 280.043 905.632 278.467 904.469 277.304C903.307 276.141 901.73 275.488 900.086 275.488ZM817.43 209.363H809.164C807.52 209.363 805.943 210.016 804.781 211.179C803.618 212.342 802.965 213.918 802.965 215.562C802.965 217.207 803.618 218.783 804.781 219.946C805.943 221.109 807.52 221.762 809.164 221.762H817.43C819.074 221.762 820.651 221.109 821.813 219.946C822.976 218.783 823.629 217.207 823.629 215.562C823.629 213.918 822.976 212.342 821.813 211.179C820.651 210.016 819.074 209.363 817.43 209.363ZM817.43 242.426H809.164C807.52 242.426 805.943 243.079 804.781 244.241C803.618 245.404 802.965 246.981 802.965 248.625C802.965 250.269 803.618 251.846 804.781 253.009C805.943 254.171 807.52 254.824 809.164 254.824H817.43C819.074 254.824 820.651 254.171 821.813 253.009C822.976 251.846 823.629 250.269 823.629 248.625C823.629 246.981 822.976 245.404 821.813 244.241C820.651 243.079 819.074 242.426 817.43 242.426ZM817.43 275.488H809.164C807.52 275.488 805.943 276.141 804.781 277.304C803.618 278.467 802.965 280.043 802.965 281.688C802.965 283.332 803.618 284.908 804.781 286.071C805.943 287.234 807.52 287.887 809.164 287.887H817.43C819.074 287.887 820.651 287.234 821.813 286.071C822.976 284.908 823.629 283.332 823.629 281.688C823.629 280.043 822.976 278.467 821.813 277.304C820.651 276.141 819.074 275.488 817.43 275.488Z" fill="#424242"/>
<path d="M539.095 133.8C544.001 130.12 547.788 126.827 550.455 123.92C553.148 120.987 554.495 118.12 554.495 115.32C554.495 113.48 554.028 112.013 553.095 110.92C552.188 109.8 550.695 109.24 548.615 109.24C546.588 109.24 545.015 109.88 543.895 111.16C542.801 112.413 542.188 114.093 542.055 116.2H539.335C539.495 113.24 540.401 110.947 542.055 109.32C543.735 107.667 545.921 106.84 548.615 106.84C551.201 106.84 553.295 107.573 554.895 109.04C556.495 110.48 557.295 112.533 557.295 115.2C557.295 118.427 555.948 121.56 553.255 124.6C550.588 127.613 547.295 130.56 543.375 133.44H558.175V135.8H539.095V133.8Z" fill="#424242"/>
<path d="M1142.78 114.64C1142.97 112.213 1143.9 110.307 1145.58 108.92C1147.29 107.507 1149.49 106.8 1152.18 106.8C1153.97 106.8 1155.5 107.12 1156.78 107.76C1158.06 108.4 1159.02 109.28 1159.66 110.4C1160.33 111.493 1160.66 112.733 1160.66 114.12C1160.66 115.8 1160.17 117.253 1159.18 118.48C1158.19 119.707 1156.79 120.467 1154.98 120.76V120.96C1156.87 121.333 1158.38 122.16 1159.5 123.44C1160.62 124.693 1161.18 126.347 1161.18 128.4C1161.18 130.693 1160.41 132.573 1158.86 134.04C1157.34 135.48 1155.13 136.2 1152.22 136.2C1149.45 136.2 1147.17 135.48 1145.38 134.04C1143.59 132.573 1142.57 130.507 1142.3 127.84H1145.02C1145.26 129.627 1146.01 131.08 1147.26 132.2C1148.51 133.293 1150.17 133.84 1152.22 133.84C1154.25 133.84 1155.79 133.307 1156.86 132.24C1157.95 131.173 1158.5 129.813 1158.5 128.16C1158.5 124.107 1155.58 122.08 1149.74 122.08H1148.86V119.72H1149.78C1155.22 119.72 1157.94 117.947 1157.94 114.4C1157.94 112.853 1157.43 111.613 1156.42 110.68C1155.41 109.72 1153.97 109.24 1152.1 109.24C1150.29 109.24 1148.78 109.72 1147.58 110.68C1146.41 111.613 1145.71 112.933 1145.5 114.64H1142.78Z" fill="#424242"/>
<path d="M147.9 109.84V107.32H154.7V136H151.86V109.84H147.9Z" fill="#424242"/>
<path d="M537.094 413.2V411.08L551.654 391.48H554.974V410.76H559.254V413.2H554.974V420H552.214V413.2H537.094ZM552.334 394.56L540.334 410.76H552.334V394.56Z" fill="#424242"/>
</svg>
